<?xml version="1.0" encoding="UTF-8" standalone="no"?>
<!DOCTYPE svg PUBLIC "-//W3C//DTD SVG 1.1//EN"
 "http://www.w3.org/Graphics/SVG/1.1/DTD/svg11.dtd">
<!-- Generated by graphviz version 2.28.0 (20161014.1527)
 -->
<!-- Title: G Pages: 1 -->
<svg width="302pt" height="940pt"
 viewBox="0.00 0.00 302.00 940.00" xmlns="http://www.w3.org/2000/svg" xmlns:xlink="http://www.w3.org/1999/xlink">
<g id="graph1" class="graph" transform="scale(1 1) rotate(0) translate(4 936)">
<title>G</title>
<polygon fill="white" stroke="white" points="-4,5 -4,-936 299,-936 299,5 -4,5"/>
<!-- 46913251174048 -->
<g id="node1" class="node"><title>46913251174048</title>
<polygon fill="none" stroke="black" points="22.1055,-881.2 22.1055,-930.8 271.894,-930.8 271.894,-881.2 22.1055,-881.2"/>
<text text-anchor="middle" x="80.8429" y="-901.8" font-family="Times,serif" font-size="14.00">inp1d: InputLayer</text>
<polyline fill="none" stroke="black" points="139.58,-881.2 139.58,-930.8 "/>
<text text-anchor="middle" x="167.416" y="-914.2" font-family="Times,serif" font-size="14.00">input:</text>
<polyline fill="none" stroke="black" points="139.58,-906 195.252,-906 "/>
<text text-anchor="middle" x="167.416" y="-889.4" font-family="Times,serif" font-size="14.00">output:</text>
<polyline fill="none" stroke="black" points="195.252,-881.2 195.252,-930.8 "/>
<text text-anchor="middle" x="233.573" y="-914.2" font-family="Times,serif" font-size="14.00">(None, 28)</text>
<polyline fill="none" stroke="black" points="195.252,-906 271.894,-906 "/>
<text text-anchor="middle" x="233.573" y="-889.4" font-family="Times,serif" font-size="14.00">(None, 28)</text>
</g>
<!-- 46913359717880 -->
<g id="node2" class="node"><title>46913359717880</title>
<polygon fill="none" stroke="black" points="10.0606,-793.2 10.0606,-842.8 283.939,-842.8 283.939,-793.2 10.0606,-793.2"/>
<text text-anchor="middle" x="73.8429" y="-813.8" font-family="Times,serif" font-size="14.00">reshape_1: Reshape</text>
<polyline fill="none" stroke="black" points="137.625,-793.2 137.625,-842.8 "/>
<text text-anchor="middle" x="165.461" y="-826.2" font-family="Times,serif" font-size="14.00">input:</text>
<polyline fill="none" stroke="black" points="137.625,-818 193.297,-818 "/>
<text text-anchor="middle" x="165.461" y="-801.4" font-family="Times,serif" font-size="14.00">output:</text>
<polyline fill="none" stroke="black" points="193.297,-793.2 193.297,-842.8 "/>
<text text-anchor="middle" x="238.618" y="-826.2" font-family="Times,serif" font-size="14.00">(None, 28)</text>
<polyline fill="none" stroke="black" points="193.297,-818 283.939,-818 "/>
<text text-anchor="middle" x="238.618" y="-801.4" font-family="Times,serif" font-size="14.00">(None, 28, 1)</text>
</g>
<!-- 46913251174048&#45;&gt;46913359717880 -->
<g id="edge2" class="edge"><title>46913251174048&#45;&gt;46913359717880</title>
<path fill="none" stroke="black" d="M147,-881.044C147,-872.378 147,-862.418 147,-853.051"/>
<polygon fill="black" stroke="black" points="150.5,-852.827 147,-842.827 143.5,-852.827 150.5,-852.827"/>
</g>
<!-- 46913359717992 -->
<g id="node3" class="node"><title>46913359717992</title>
<polygon fill="none" stroke="black" points="3.8187,-705.2 3.8187,-754.8 290.181,-754.8 290.181,-705.2 3.8187,-705.2"/>
<text text-anchor="middle" x="73.8429" y="-725.8" font-family="Times,serif" font-size="14.00">cnn0_d2_k5: Conv1D</text>
<polyline fill="none" stroke="black" points="143.867,-705.2 143.867,-754.8 "/>
<text text-anchor="middle" x="171.703" y="-738.2" font-family="Times,serif" font-size="14.00">input:</text>
<polyline fill="none" stroke="black" points="143.867,-730 199.539,-730 "/>
<text text-anchor="middle" x="171.703" y="-713.4" font-family="Times,serif" font-size="14.00">output:</text>
<polyline fill="none" stroke="black" points="199.539,-705.2 199.539,-754.8 "/>
<text text-anchor="middle" x="244.86" y="-738.2" font-family="Times,serif" font-size="14.00">(None, 28, 1)</text>
<polyline fill="none" stroke="black" points="199.539,-730 290.181,-730 "/>
<text text-anchor="middle" x="244.86" y="-713.4" font-family="Times,serif" font-size="14.00">(None, 24, 2)</text>
</g>
<!-- 46913359717880&#45;&gt;46913359717992 -->
<g id="edge4" class="edge"><title>46913359717880&#45;&gt;46913359717992</title>
<path fill="none" stroke="black" d="M147,-793.044C147,-784.378 147,-774.418 147,-765.051"/>
<polygon fill="black" stroke="black" points="150.5,-764.827 147,-754.827 143.5,-764.827 150.5,-764.827"/>
</g>
<!-- 46913359718104 -->
<g id="node4" class="node"><title>46913359718104</title>
<polygon fill="none" stroke="black" points="-0.4625,-617.2 -0.4625,-666.8 294.462,-666.8 294.462,-617.2 -0.4625,-617.2"/>
<text text-anchor="middle" x="73.8429" y="-637.8" font-family="Times,serif" font-size="14.00">pool_0: MaxPooling1D</text>
<polyline fill="none" stroke="black" points="148.148,-617.2 148.148,-666.8 "/>
<text text-anchor="middle" x="175.984" y="-650.2" font-family="Times,serif" font-size="14.00">input:</text>
<polyline fill="none" stroke="black" points="148.148,-642 203.82,-642 "/>
<text text-anchor="middle" x="175.984" y="-625.4" font-family="Times,serif" font-size="14.00">output:</text>
<polyline fill="none" stroke="black" points="203.82,-617.2 203.82,-666.8 "/>
<text text-anchor="middle" x="249.141" y="-650.2" font-family="Times,serif" font-size="14.00">(None, 24, 2)</text>
<polyline fill="none" stroke="black" points="203.82,-642 294.462,-642 "/>
<text text-anchor="middle" x="249.141" y="-625.4" font-family="Times,serif" font-size="14.00">(None, 8, 2)</text>
</g>
<!-- 46913359717992&#45;&gt;46913359718104 -->
<g id="edge6" class="edge"><title>46913359717992&#45;&gt;46913359718104</title>
<path fill="none" stroke="black" d="M147,-705.044C147,-696.378 147,-686.418 147,-677.051"/>
<polygon fill="black" stroke="black" points="150.5,-676.827 147,-666.827 143.5,-676.827 150.5,-676.827"/>
</g>
<!-- 46913359933168 -->
<g id="node5" class="node"><title>46913359933168</title>
<polygon fill="none" stroke="black" points="30.2605,-529.2 30.2605,-578.8 263.74,-578.8 263.74,-529.2 30.2605,-529.2"/>
<text text-anchor="middle" x="77.3429" y="-549.8" font-family="Times,serif" font-size="14.00">to_1d: Flatten</text>
<polyline fill="none" stroke="black" points="124.425,-529.2 124.425,-578.8 "/>
<text text-anchor="middle" x="152.261" y="-562.2" font-family="Times,serif" font-size="14.00">input:</text>
<polyline fill="none" stroke="black" points="124.425,-554 180.097,-554 "/>
<text text-anchor="middle" x="152.261" y="-537.4" font-family="Times,serif" font-size="14.00">output:</text>
<polyline fill="none" stroke="black" points="180.097,-529.2 180.097,-578.8 "/>
<text text-anchor="middle" x="221.918" y="-562.2" font-family="Times,serif" font-size="14.00">(None, 8, 2)</text>
<polyline fill="none" stroke="black" points="180.097,-554 263.739,-554 "/>
<text text-anchor="middle" x="221.918" y="-537.4" font-family="Times,serif" font-size="14.00">(None, 16)</text>
</g>
<!-- 46913359718104&#45;&gt;46913359933168 -->
<g id="edge8" class="edge"><title>46913359718104&#45;&gt;46913359933168</title>
<path fill="none" stroke="black" d="M147,-617.044C147,-608.378 147,-598.418 147,-589.051"/>
<polygon fill="black" stroke="black" points="150.5,-588.827 147,-578.827 143.5,-588.827 150.5,-588.827"/>
</g>
<!-- 46913390284584 -->
<g id="node6" class="node"><title>46913390284584</title>
<polygon fill="none" stroke="black" points="24.4288,-441.2 24.4288,-490.8 269.571,-490.8 269.571,-441.2 24.4288,-441.2"/>
<text text-anchor="middle" x="80.8429" y="-461.8" font-family="Times,serif" font-size="14.00">dropFC: Dropout</text>
<polyline fill="none" stroke="black" points="137.257,-441.2 137.257,-490.8 "/>
<text text-anchor="middle" x="165.093" y="-474.2" font-family="Times,serif" font-size="14.00">input:</text>
<polyline fill="none" stroke="black" points="137.257,-466 192.929,-466 "/>
<text text-anchor="middle" x="165.093" y="-449.4" font-family="Times,serif" font-size="14.00">output:</text>
<polyline fill="none" stroke="black" points="192.929,-441.2 192.929,-490.8 "/>
<text text-anchor="middle" x="231.25" y="-474.2" font-family="Times,serif" font-size="14.00">(None, 16)</text>
<polyline fill="none" stroke="black" points="192.929,-466 269.571,-466 "/>
<text text-anchor="middle" x="231.25" y="-449.4" font-family="Times,serif" font-size="14.00">(None, 16)</text>
</g>
<!-- 46913359933168&#45;&gt;46913390284584 -->
<g id="edge10" class="edge"><title>46913359933168&#45;&gt;46913390284584</title>
<path fill="none" stroke="black" d="M147,-529.044C147,-520.378 147,-510.418 147,-501.051"/>
<polygon fill="black" stroke="black" points="150.5,-500.827 147,-490.827 143.5,-500.827 150.5,-500.827"/>
</g>
<!-- 46913390409880 -->
<g id="node7" class="node"><title>46913390409880</title>
<polygon fill="none" stroke="black" points="42.7198,-353.2 42.7198,-402.8 251.28,-402.8 251.28,-353.2 42.7198,-353.2"/>
<text text-anchor="middle" x="80.8429" y="-373.8" font-family="Times,serif" font-size="14.00">fc0: Dense</text>
<polyline fill="none" stroke="black" points="118.966,-353.2 118.966,-402.8 "/>
<text text-anchor="middle" x="146.802" y="-386.2" font-family="Times,serif" font-size="14.00">input:</text>
<polyline fill="none" stroke="black" points="118.966,-378 174.638,-378 "/>
<text text-anchor="middle" x="146.802" y="-361.4" font-family="Times,serif" font-size="14.00">output:</text>
<polyline fill="none" stroke="black" points="174.638,-353.2 174.638,-402.8 "/>
<text text-anchor="middle" x="212.959" y="-386.2" font-family="Times,serif" font-size="14.00">(None, 16)</text>
<polyline fill="none" stroke="black" points="174.638,-378 251.28,-378 "/>
<text text-anchor="middle" x="212.959" y="-361.4" font-family="Times,serif" font-size="14.00">(None, 10)</text>
</g>
<!-- 46913390284584&#45;&gt;46913390409880 -->
<g id="edge12" class="edge"><title>46913390284584&#45;&gt;46913390409880</title>
<path fill="none" stroke="black" d="M147,-441.044C147,-432.378 147,-422.418 147,-413.051"/>
<polygon fill="black" stroke="black" points="150.5,-412.827 147,-402.827 143.5,-412.827 150.5,-412.827"/>
</g>
<!-- 46913390410776 -->
<g id="node8" class="node"><title>46913390410776</title>
<polygon fill="none" stroke="black" points="29.4884,-265.2 29.4884,-314.8 264.512,-314.8 264.512,-265.2 29.4884,-265.2"/>
<text text-anchor="middle" x="80.8429" y="-285.8" font-family="Times,serif" font-size="14.00">drop0: Dropout</text>
<polyline fill="none" stroke="black" points="132.197,-265.2 132.197,-314.8 "/>
<text text-anchor="middle" x="160.033" y="-298.2" font-family="Times,serif" font-size="14.00">input:</text>
<polyline fill="none" stroke="black" points="132.197,-290 187.869,-290 "/>
<text text-anchor="middle" x="160.033" y="-273.4" font-family="Times,serif" font-size="14.00">output:</text>
<polyline fill="none" stroke="black" points="187.869,-265.2 187.869,-314.8 "/>
<text text-anchor="middle" x="226.19" y="-298.2" font-family="Times,serif" font-size="14.00">(None, 10)</text>
<polyline fill="none" stroke="black" points="187.869,-290 264.512,-290 "/>
<text text-anchor="middle" x="226.19" y="-273.4" font-family="Times,serif" font-size="14.00">(None, 10)</text>
</g>
<!-- 46913390409880&#45;&gt;46913390410776 -->
<g id="edge14" class="edge"><title>46913390409880&#45;&gt;46913390410776</title>
<path fill="none" stroke="black" d="M147,-353.044C147,-344.378 147,-334.418 147,-325.051"/>
<polygon fill="black" stroke="black" points="150.5,-324.827 147,-314.827 143.5,-324.827 150.5,-324.827"/>
</g>
<!-- 46913390622032 -->
<g id="node9" class="node"><title>46913390622032</title>
<polygon fill="none" stroke="black" points="42.7198,-177.2 42.7198,-226.8 251.28,-226.8 251.28,-177.2 42.7198,-177.2"/>
<text text-anchor="middle" x="80.8429" y="-197.8" font-family="Times,serif" font-size="14.00">fc1: Dense</text>
<polyline fill="none" stroke="black" points="118.966,-177.2 118.966,-226.8 "/>
<text text-anchor="middle" x="146.802" y="-210.2" font-family="Times,serif" font-size="14.00">input:</text>
<polyline fill="none" stroke="black" points="118.966,-202 174.638,-202 "/>
<text text-anchor="middle" x="146.802" y="-185.4" font-family="Times,serif" font-size="14.00">output:</text>
<polyline fill="none" stroke="black" points="174.638,-177.2 174.638,-226.8 "/>
<text text-anchor="middle" x="212.959" y="-210.2" font-family="Times,serif" font-size="14.00">(None, 10)</text>
<polyline fill="none" stroke="black" points="174.638,-202 251.28,-202 "/>
<text text-anchor="middle" x="212.459" y="-185.4" font-family="Times,serif" font-size="14.00">(None, 5)</text>
</g>
<!-- 46913390410776&#45;&gt;46913390622032 -->
<g id="edge16" class="edge"><title>46913390410776&#45;&gt;46913390622032</title>
<path fill="none" stroke="black" d="M147,-265.044C147,-256.378 147,-246.418 147,-237.051"/>
<polygon fill="black" stroke="black" points="150.5,-236.827 147,-226.827 143.5,-236.827 150.5,-236.827"/>
</g>
<!-- 46913390688856 -->
<g id="node10" class="node"><title>46913390688856</title>
<polygon fill="none" stroke="black" points="32.9884,-89.2 32.9884,-138.8 261.012,-138.8 261.012,-89.2 32.9884,-89.2"/>
<text text-anchor="middle" x="84.3429" y="-109.8" font-family="Times,serif" font-size="14.00">drop1: Dropout</text>
<polyline fill="none" stroke="black" points="135.697,-89.2 135.697,-138.8 "/>
<text text-anchor="middle" x="163.533" y="-122.2" font-family="Times,serif" font-size="14.00">input:</text>
<polyline fill="none" stroke="black" points="135.697,-114 191.369,-114 "/>
<text text-anchor="middle" x="163.533" y="-97.4" font-family="Times,serif" font-size="14.00">output:</text>
<polyline fill="none" stroke="black" points="191.369,-89.2 191.369,-138.8 "/>
<text text-anchor="middle" x="226.19" y="-122.2" font-family="Times,serif" font-size="14.00">(None, 5)</text>
<polyline fill="none" stroke="black" points="191.369,-114 261.012,-114 "/>
<text text-anchor="middle" x="226.19" y="-97.4" font-family="Times,serif" font-size="14.00">(None, 5)</text>
</g>
<!-- 46913390622032&#45;&gt;46913390688856 -->
<g id="edge18" class="edge"><title>46913390622032&#45;&gt;46913390688856</title>
<path fill="none" stroke="black" d="M147,-177.044C147,-168.378 147,-158.418 147,-149.051"/>
<polygon fill="black" stroke="black" points="150.5,-148.827 147,-138.827 143.5,-148.827 150.5,-148.827"/>
</g>
<!-- 46913390689640 -->
<g id="node11" class="node"><title>46913390689640</title>
<polygon fill="none" stroke="black" points="32.5992,-1.2 32.5992,-50.8 261.401,-50.8 261.401,-1.2 32.5992,-1.2"/>
<text text-anchor="middle" x="84.3429" y="-21.8" font-family="Times,serif" font-size="14.00">sigmoid: Dense</text>
<polyline fill="none" stroke="black" points="136.087,-1.2 136.087,-50.8 "/>
<text text-anchor="middle" x="163.922" y="-34.2" font-family="Times,serif" font-size="14.00">input:</text>
<polyline fill="none" stroke="black" points="136.087,-26 191.758,-26 "/>
<text text-anchor="middle" x="163.922" y="-9.4" font-family="Times,serif" font-size="14.00">output:</text>
<polyline fill="none" stroke="black" points="191.758,-1.2 191.758,-50.8 "/>
<text text-anchor="middle" x="226.58" y="-34.2" font-family="Times,serif" font-size="14.00">(None, 5)</text>
<polyline fill="none" stroke="black" points="191.758,-26 261.401,-26 "/>
<text text-anchor="middle" x="226.58" y="-9.4" font-family="Times,serif" font-size="14.00">(None, 1)</text>
</g>
<!-- 46913390688856&#45;&gt;46913390689640 -->
<g id="edge20" class="edge"><title>46913390688856&#45;&gt;46913390689640</title>
<path fill="none" stroke="black" d="M147,-89.0442C147,-80.3777 147,-70.4177 147,-61.0506"/>
<polygon fill="black" stroke="black" points="150.5,-60.8273 147,-50.8273 143.5,-60.8274 150.5,-60.8273"/>
</g>
</g>
</svg>
